<?xml version="1.0" encoding="utf-8"?>
<!-- Generator: Adobe Illustrator 26.0.3, SVG Export Plug-In . SVG Version: 6.00 Build 0)  -->
<svg version="1.0" id="Layer_1" xmlns="http://www.w3.org/2000/svg" xmlns:xlink="http://www.w3.org/1999/xlink" x="0px" y="0px"
	 viewBox="0 0 886 602.2" style="enable-background:new 0 0 886 602.2;" xml:space="preserve">
<style type="text/css">
	.st0{fill:#FFA400;}
	.st1{fill:#FF671D;}
</style>
<path class="st0" d="M585.6,337.1h-14.1c-0.6,0-1.1-0.4-1.1-1c0-0.1,0-0.2,0-0.3l8.1-44.7c0.2-0.6-0.2-1.2-0.7-1.4s-1.2,0.2-1.4,0.7
	l-19.8,46c-0.2,0.4-0.6,0.7-1.1,0.7h-17.4c-0.6,0-1.1-0.5-1.1-1.1c0,0,0,0,0,0l-3.5-46c0.1-0.6-0.3-1.2-1-1.2
	c-0.6-0.1-1.2,0.3-1.2,1c0,0.1,0,0.1,0,0.2l-8,46.2c-0.1,0.5-0.5,0.9-1.1,0.9h-14.1c-0.6,0-1.1-0.5-1.1-1.1c0,0,0-0.1,0-0.1
	c0-0.1,0-0.1,0-0.2l12.4-69.8c0.1-0.5,0.5-0.9,1.1-0.9h24.6c0.6,0,1.1,0.5,1.1,1.1l0,0l3.4,48.9c0.1,0.6,0.6,1.1,1.2,1c0,0,0,0,0,0
	c0.4,0,0.7-0.3,0.9-0.6l20-49.5c0.2-0.4,0.6-0.7,1.1-0.7h25.2c0.6,0,1.1,0.4,1.1,1c0,0.1,0,0.2,0,0.3l-12.3,69.8
	C586.6,336.7,586.1,337.1,585.6,337.1z"/>
<path class="st0" d="M678.3,294.8c0,25.7-17,43.7-41.6,43.7c-21.3,0-33.1-13.6-33.1-31.2c0-25.8,17-43.7,41.5-43.7
	C666.5,263.6,678.3,277.2,678.3,294.8z M661,295.2c0-11.6-5.8-19.5-16.7-19.5c-15.9,0-23.3,17-23.3,31.2c0,11.5,5.8,19.5,16.7,19.5
	C653.5,326.5,661,309.5,661,295.2L661,295.2z"/>
<path class="st0" d="M699.6,336.2l-12.1-69.8c-0.1-0.6,0.2-1.1,0.8-1.3c0.1,0,0.2,0,0.3,0H704c0.6,0,1,0.4,1.1,0.9c0,0,0,0,0,0.1
	l7.2,54.8c-0.1,0.6,0.3,1.1,0.9,1.2c0,0,0,0,0,0c0.6,0.1,1.1-0.3,1.2-0.9l27.1-55.4c0.2-0.4,0.6-0.6,1-0.6h15c0.6,0,1.1,0.4,1.1,1
	c0,0,0,0,0,0c0,0.2,0,0.5-0.2,0.7l-37,69.8c-0.2,0.4-0.6,0.6-1,0.6h-19.8C700.1,337.2,699.6,336.8,699.6,336.2z"/>
<path class="st0" d="M778.3,294.6h31.1c0.6,0,1.1,0.4,1.1,1c0,0.1,0,0.2,0,0.3l-1.9,10.5c-0.1,0.5-0.5,0.9-1.1,0.9h-31.9
	c-0.5,0-1,0.4-1.1,0.9L772,323c-0.1,0.6,0.2,1.1,0.8,1.3c0,0,0,0,0,0c0.1,0,0.2,0,0.3,0h34.4c0.6,0,1.1,0.4,1.1,1c0,0.1,0,0.2,0,0.3
	l-1.9,10.6c-0.1,0.5-0.5,0.9-1.1,0.9h-51.1c-0.6,0-1.1-0.4-1.1-1c0-0.1,0-0.2,0-0.3l12.3-69.8c0.1-0.5,0.5-0.9,1.1-0.9h50.1
	c0.6,0,1.1,0.4,1.1,1c0,0.1,0,0.2,0,0.3l-1.9,10.5c-0.1,0.5-0.5,0.9-1.1,0.9h-34.2c-0.5,0-1,0.4-1.1,0.9l-2.6,14.5
	c-0.2,0.5,0.1,1.1,0.6,1.3C778,294.6,778.1,294.6,778.3,294.6L778.3,294.6z"/>
<path class="st1" d="M287.6,337.1H241c-0.6,0-1.1-0.4-1.1-1c0-0.1,0-0.2,0-0.3l12.3-69.8c0.1-0.5,0.5-0.9,1.1-0.9h14
	c0.6,0,1,0.4,1.1,0.9c0,0,0,0.1,0,0.1c0,0.1,0,0.2,0,0.3l-9.8,55.6c-0.1,0.6,0.2,1.1,0.8,1.3c0.1,0,0.2,0,0.3,0h34
	c0.6,0,1.1,0.4,1.1,1c0,0,0,0,0,0c0,0.2,0,0.5-0.2,0.7l-6.1,11.5C288.4,336.9,288,337.1,287.6,337.1z"/>
<path class="st1" d="M421.1,337.1h-46.5c-0.6,0-1-0.4-1.1-1c0-0.1,0-0.2,0-0.3l12.3-69.8c0.1-0.5,0.5-0.9,1.1-0.9h14
	c0.6,0,1.1,0.4,1.1,1c0,0.1,0,0.2,0,0.3l-9.9,55.6c-0.1,0.6,0.2,1.1,0.8,1.3c0.1,0,0.2,0,0.3,0h34c0.6,0,1.1,0.4,1.1,1c0,0,0,0,0,0
	c0,0.2,0,0.5-0.2,0.7l-6.1,11.6C421.8,336.9,421.5,337.1,421.1,337.1z"/>
<path class="st1" d="M488.5,266c-0.1-0.5-0.5-0.9-1.1-0.9h-19.8c-0.4,0-0.8,0.2-1,0.6l-37,69.8c-0.3,0.5-0.2,1.1,0.3,1.5
	c0.2,0.1,0.5,0.2,0.7,0.2h15c0.4,0,0.8-0.2,1-0.6l2.3-4.7l0,0l14.6-29.4v-0.1l2.1-4.4l1.5-3l0,0l5.9-11.9c0.1-0.6,0.7-1,1.2-0.9
	c0.6,0.1,1,0.6,0.9,1.2c0,0,0,0,0,0l2.8,19.2c0.1,0.6-0.3,1.2-0.9,1.3c0,0,0,0,0,0h-8.9c-0.6,0-1.1,0.3-1.4,0.9l-4.8,9.7
	c-0.4,0.8-0.1,1.7,0.7,2.1c0,0,0,0,0,0c0.2,0.1,0.5,0.2,0.7,0.2h16c0.5,0,1,0.4,1.1,0.9l2.6,18.5c0,0.6,0.5,1,1.1,1h15.5
	c0.6,0,1.1-0.4,1.1-1c0-0.1,0-0.2,0-0.3L488.5,266z"/>
<path class="st1" d="M354.9,266c-0.1-0.5-0.5-0.9-1.1-0.9H334c-0.4,0-0.8,0.2-1,0.6l-37,69.8c-0.3,0.5-0.1,1.2,0.5,1.5
	c0.2,0.1,0.3,0.1,0.5,0.1h15c0.4,0,0.8-0.2,1-0.6l1.1-2.1l0,0l15.9-32v-0.1l1.5-3l0.8-1.7l0,0l7.3-14.5c0.1-0.6,0.7-1,1.2-0.9
	c0.6,0.1,1,0.7,0.9,1.2l2.8,19.2c0.1,0.6-0.3,1.2-1,1.3h-8.9c-0.6,0-1.1,0.3-1.4,0.9l-4.8,9.7c-0.4,0.8-0.1,1.7,0.7,2.1
	c0.2,0.1,0.5,0.2,0.7,0.2h15.9c0.5,0,1,0.4,1.1,1l2.6,18.4c0.1,0.6,0.5,1,1.1,1H366c0.6,0,1-0.4,1.1-1c0-0.1,0-0.2,0-0.3L354.9,266z
	"/>
<path class="st1" d="M228.2,226.1c-55.8,0-43.6,36.8-43.6,36.8c-7.5-2.3-102.5-33.8-116-38.2c-0.2-0.1-0.5,0.1-0.6,0.3
	c0,0.2,0,0.3,0.1,0.5c1.4,1.6,4.2,4.7,8.6,9.7c0.3,0.4,0.8,0.7,1.2,0.8l1.4,0.5l78.8,25.8c0.4,0.2,0.8,0.5,1.1,0.9l4.3,7.3
	c0,0,0,0.1,0,0.1c0,0,0,0,0,0c0,0-0.1,0-0.1,0l-76.9-25.3c-0.1,0-0.2,0-0.3,0.1c0,0.1,0,0.2,0,0.2c1.8,2,3.7,4.1,5.7,6.2
	c0.5,0.6,1.2,1,2,1.3l73,23.9c0.4,0.1,0.8,0.4,1.1,0.8l4.3,7.3c0,0,0,0.1,0,0.1c0,0-0.1,0-0.1,0l-70-22.9c-0.1,0-0.2,0-0.2,0.1
	c0,0.1,0,0.1,0,0.2c2.2,2.3,4.4,4.6,6.6,6.9c0.3,0.3,0.6,0.5,1,0.6l65.8,21.6c0.6,0.2,1.1,0.6,1.4,1.1l4.2,7.1c0,0,0,0.1,0,0.1
	c0,0,0,0-0.1,0l-61.3-20.1c-0.2,0-0.3,0-0.4,0.2c0,0,0,0,0,0c0,0.1,0,0.2,0.1,0.3c13.7,13.7,25.8,24.5,30.4,24.9L105.9,404
	c-0.1,0.4,0,0.8,0.4,0.9c0.2,0.1,0.5,0.1,0.7-0.1c19.8-16.2,33.7-59.4,54.8-70.9c30.4-16.6,42.2-26.4,49.7-43
	c8.9-19.6,20.1-52.4,21.8-53.7c12-9.3,33.5-30.1,42.6-39c0.2-0.2,0.2-0.6,0-0.9c-0.2-0.2-0.5-0.2-0.8-0.1
	C262.4,205.4,230,226.1,228.2,226.1z"/>
</svg>
